<?xml version="1.0" standalone="no"?>
<!DOCTYPE svg PUBLIC "-//W3C//DTD SVG 20010904//EN"
 "http://www.w3.org/TR/2001/REC-SVG-20010904/DTD/svg10.dtd">
<svg version="1.0" xmlns="http://www.w3.org/2000/svg"
 width="1072.000000pt" height="607.000000pt" viewBox="0 0 1072.000000 607.000000"
 preserveAspectRatio="xMidYMid meet">
<metadata>
Created by potrace 1.16, written by Peter Selinger 2001-2019
</metadata>
<g transform="translate(0.000000,607.000000) scale(0.100000,-0.100000)"
fill="#000000" stroke="none">
<path d="M5347 4430 c-53 -9 -76 -22 -124 -70 -49 -48 -52 -119 -13 -255 27
-94 14 -181 -33 -221 -36 -30 -31 -43 6 -14 l26 21 16 -31 c8 -16 23 -30 33
-30 13 0 11 5 -11 26 -15 14 -25 29 -23 33 3 4 6 28 7 54 2 26 4 47 6 47 8 0
44 -91 39 -99 -3 -4 4 -18 15 -30 21 -22 18 -41 -6 -41 -9 0 -1 -14 19 -35 37
-38 49 -44 40 -20 -4 8 -12 15 -19 15 -15 0 -29 31 -18 40 4 3 18 -4 30 -17
12 -13 20 -23 17 -23 -3 0 2 -7 10 -16 9 -8 13 -21 9 -27 -4 -7 2 -5 12 3 11
9 16 10 11 3 -4 -9 -1 -13 10 -13 14 0 14 -3 4 -15 -11 -13 -15 -13 -23 -3 -6
9 -7 8 -3 -5 3 -10 6 -20 6 -22 0 -14 65 12 91 36 17 16 35 29 41 29 5 0 6 5
3 10 -3 6 -2 10 2 10 5 0 25 14 46 31 31 26 35 33 26 50 -5 11 -15 17 -21 13
-7 -4 -6 -9 2 -14 8 -5 6 -10 -7 -15 -10 -5 -21 -9 -25 -9 -3 -1 -10 -5 -15
-10 -5 -6 -2 -6 7 -1 8 4 6 -1 -5 -12 -16 -16 -24 -18 -40 -10 -18 10 -18 11
-2 16 10 4 18 10 18 14 -2 21 0 27 12 27 6 0 32 21 56 46 23 25 46 43 48 40 3
-3 1 -11 -4 -18 -5 -7 -13 -21 -16 -31 -13 -35 14 -6 34 38 17 35 18 48 9 65
-9 17 -14 19 -26 9 -8 -6 -14 -16 -14 -21 0 -6 7 -5 16 2 13 12 14 10 3 -13
-14 -32 -40 -37 -32 -7 9 35 -7 21 -23 -20 -9 -22 -20 -38 -25 -35 -4 3 -13
-3 -18 -14 -9 -16 -20 -19 -49 -12 -2 1 10 13 27 27 17 14 39 39 48 55 10 16
24 29 31 29 11 0 12 3 3 14 -9 11 -9 16 0 21 6 4 15 1 20 -6 7 -11 9 -10 9 4
0 9 -5 17 -12 17 -6 0 -9 3 -5 6 3 4 -1 20 -9 36 -21 41 -12 60 23 52 40 -9
243 -10 243 -1 0 8 -23 10 -142 9 -93 -1 -95 1 -104 58 -2 8 -6 35 -10 60 -4
25 -8 47 -9 50 -27 110 -100 145 -248 120z m161 -18 c2 -7 9 -9 15 -5 7 4 -3
-8 -20 -26 -18 -18 -33 -40 -32 -49 0 -14 2 -14 6 -2 7 20 44 60 55 60 12 0
32 -22 37 -40 15 -53 27 -127 23 -137 -2 -7 -12 -13 -21 -13 -10 0 -18 -7 -18
-15 0 -18 23 -20 30 -2 4 9 7 9 18 -1 12 -11 11 -15 -6 -25 -11 -6 -22 -12
-25 -13 -3 0 -23 -9 -45 -18 -22 -10 -50 -20 -64 -23 -13 -2 -32 -8 -42 -13
-29 -16 -49 -12 -49 10 0 11 6 20 13 21 85 5 97 17 92 91 -5 67 -18 96 -15 33
1 -22 2 -45 1 -51 -1 -13 -30 -24 -73 -30 -27 -4 -28 -2 -28 41 l0 46 -47 -7
c-27 -3 -51 -9 -55 -12 -4 -4 -3 -24 2 -45 6 -30 5 -40 -7 -44 -29 -11 -45 22
-49 103 -2 58 1 80 12 92 18 17 26 11 28 -20 1 -26 14 -28 70 -12 27 7 42 18
48 35 l8 24 -17 -22 c-20 -24 -93 -43 -93 -24 0 21 -2 26 -13 41 -6 8 -8 12
-3 8 5 -4 16 2 25 13 30 38 228 63 239 31z m-159 -280 c2 -93 1 -100 -18 -105
-12 -3 -21 -2 -22 1 -1 4 -2 19 -3 33 -2 14 -6 31 -11 38 -7 13 -14 51 -18
101 -2 20 4 26 28 30 17 4 32 5 36 4 3 -2 6 -47 8 -102z m111 22 c0 -8 -5 -12
-10 -9 -6 4 -8 11 -5 16 9 14 15 11 15 -7z m-197 -60 c4 -1 11 -2 17 -3 20 -2
-2 -27 -25 -27 -20 0 -25 5 -25 24 0 16 4 21 13 15 6 -4 15 -8 20 -9z m263
-26 c-2 -22 -11 -35 -30 -45 -15 -8 -30 -13 -32 -11 -8 9 16 71 33 83 24 18
33 10 29 -27z m44 -2 c4 -19 5 -38 1 -41 -3 -4 -7 -11 -7 -16 -1 -5 -2 -13 -3
-19 0 -5 -6 -9 -12 -7 -6 1 -13 -6 -14 -16 -5 -29 -99 -117 -126 -118 -39 -2
-63 2 -76 13 -7 6 -13 7 -13 2 -1 -5 -12 13 -27 40 -24 48 -25 50 -7 63 11 8
18 16 17 18 -7 13 -1 25 12 25 8 0 15 -7 15 -15 0 -8 -4 -15 -8 -15 -16 0 -31
-46 -20 -61 8 -12 9 -11 5 1 -5 15 15 52 27 51 20 -3 26 0 21 8 -3 6 4 18 15
29 20 19 21 19 60 0 24 -12 50 -18 63 -14 25 6 47 43 47 80 0 23 9 40 18 32 2
-3 7 -20 12 -40z m-114 -7 c-14 -33 -18 -34 -56 -14 -19 10 -21 15 -10 18 38
13 75 25 77 26 1 1 -4 -13 -11 -30z m-156 -27 c0 -4 -4 -13 -8 -20 -6 -9 -12
-5 -20 13 -16 35 -15 37 8 25 11 -6 20 -14 20 -18z m58 -198 c18 -8 32 -20 32
-25 0 -6 4 -7 10 -4 5 3 7 0 4 -8 -5 -13 -34 -20 -34 -8 0 4 -11 19 -25 34
-30 31 -29 32 13 11z m128 4 c-1 -7 -5 -19 -10 -27 -7 -11 -10 -11 -17 0 -6 9
-3 18 8 27 9 6 18 12 19 12 1 0 1 -6 0 -12z m-52 -23 c-4 -8 -7 -15 -9 -15 -2
0 -5 7 -9 15 -3 9 0 15 9 15 9 0 12 -6 9 -15z m40 -40 c-4 -8 -11 -15 -16 -15
-6 0 -5 6 2 15 7 8 14 15 16 15 2 0 1 -7 -2 -15z m30 -19 c-3 -9 -10 -14 -14
-11 -4 3 -13 -2 -20 -10 -16 -19 -34 -19 -51 1 -12 14 -9 16 17 13 20 -2 37 3
49 14 20 20 28 18 19 -7z"/>
<path d="M5377 4394 c-10 -13 -14 -24 -10 -24 9 0 36 40 31 45 -2 2 -11 -8
-21 -21z"/>
<path d="M5560 4241 c0 -6 5 -13 10 -16 6 -3 10 1 10 9 0 9 -4 16 -10 16 -5 0
-10 -4 -10 -9z"/>
<path d="M5367 3973 c3 -7 -2 -13 -11 -13 -9 0 -16 -8 -16 -19 0 -11 -6 -21
-12 -24 -10 -3 -10 -8 -2 -17 9 -9 15 -4 25 19 15 33 27 39 35 17 3 -7 17 -13
32 -12 22 1 27 6 28 29 1 28 -1 29 -52 32 -22 1 -30 -3 -27 -12z m63 -8 c14
-9 12 -22 -5 -29 -14 -5 -45 18 -45 34 0 9 33 6 50 -5z"/>
<path d="M5874 4114 c3 -7 -10 -22 -30 -34 -18 -12 -34 -27 -34 -32 0 -6 -3
-9 -6 -6 -7 8 -46 -30 -69 -67 -14 -22 -7 -18 25 16 25 26 73 65 107 87 62 39
62 40 32 44 -21 3 -28 1 -25 -8z"/>
<path d="M5983 4123 c9 -2 23 -2 30 0 6 3 -1 5 -18 5 -16 0 -22 -2 -12 -5z"/>
<path d="M5921 4034 c-19 -8 -32 -17 -29 -19 7 -8 68 16 68 26 0 11 2 11 -39
-7z"/>
<path d="M5697 3923 c3 -7 0 -13 -6 -13 -6 0 -16 -11 -21 -25 -5 -14 -16 -25
-23 -25 -8 0 -19 -12 -25 -26 -7 -14 -8 -23 -2 -19 5 3 10 1 10 -4 0 -6 -3
-11 -8 -11 -4 0 -22 -13 -40 -30 -18 -16 -34 -28 -35 -27 -1 1 -12 -7 -25 -19
-20 -19 -21 -22 -6 -40 8 -10 13 -14 11 -9 -8 17 11 55 28 55 8 0 15 -6 15
-14 0 -7 7 -29 15 -47 16 -34 16 -34 10 -4 -17 75 -16 76 20 116 19 21 35 45
35 52 0 8 -4 7 -11 -3 -9 -13 -10 -13 -6 0 2 8 11 14 19 12 8 -1 27 16 42 38
30 45 32 57 12 57 -8 0 -12 -6 -9 -14z"/>
<path d="M5735 3889 c-4 -6 -5 -12 -2 -15 2 -3 7 2 10 11 7 17 1 20 -8 4z"/>
<path d="M5895 3835 c-38 -12 -65 -23 -59 -24 6 -1 31 6 55 15 58 22 218 26
284 8 80 -23 85 -23 85 -14 0 18 -72 31 -195 35 -84 3 -111 0 -170 -20z"/>
<path d="M5114 3834 c-18 -14 -18 -15 4 -4 12 6 22 13 22 15 0 8 -5 6 -26 -11z"/>
<path d="M5055 3780 c-9 -16 -13 -30 -11 -30 3 0 12 14 21 30 9 17 13 30 11
30 -3 0 -12 -13 -21 -30z"/>
<path d="M5773 3798 c-13 -6 -23 -15 -23 -20 0 -7 55 15 69 28 9 8 -25 2 -46
-8z"/>
<path d="M5270 3767 c0 -7 5 -18 12 -25 9 -9 7 -21 -6 -51 -10 -21 -16 -45
-14 -51 2 -7 12 6 22 29 16 35 23 41 47 39 26 -2 27 -4 15 -28 -7 -14 -13 -43
-14 -65 l-1 -40 14 44 c8 24 19 49 25 56 8 9 7 20 -1 39 -9 19 -15 23 -21 14
-6 -10 -8 -10 -8 0 0 6 -7 12 -15 12 -8 0 -24 9 -35 20 -13 13 -20 15 -20 7z"/>
<path d="M6769 3762 c6 -12 16 -24 22 -28 8 -4 8 -1 0 14 -6 12 -16 24 -22 28
-8 4 -8 1 0 -14z"/>
<path d="M5660 3639 c-8 -23 -19 -43 -26 -46 -7 -3 -10 -11 -8 -18 3 -8 -4
-20 -15 -27 -12 -7 -21 -18 -21 -24 0 -7 -11 -19 -24 -27 -23 -16 -24 -15 -36
14 -7 16 -15 27 -18 25 -2 -3 1 -19 8 -36 11 -27 10 -33 -5 -50 -15 -17 -64
-36 -110 -44 -24 -4 -47 -23 -36 -30 6 -4 11 -3 11 3 0 9 38 21 90 28 32 4 73
11 80 12 3 1 -3 6 -13 12 -17 10 -16 13 15 34 45 31 85 39 193 39 90 0 100 -2
188 -28 26 -8 47 -10 47 -5 0 5 -4 10 -10 10 -5 1 -13 2 -17 4 -97 26 -118 29
-233 32 -63 1 -117 3 -120 3 -3 0 3 5 13 11 23 14 85 149 68 149 -4 0 -14 -18
-21 -41z"/>
<path d="M6860 3630 c21 -36 128 -158 113 -129 -11 22 -51 73 -96 122 -37 42
-38 42 -17 7z"/>
<path d="M5477 3614 c-6 -6 19 -64 28 -64 6 0 -6 32 -16 46 -5 6 -6 14 -2 17
3 4 4 7 1 7 -2 0 -7 -3 -11 -6z"/>
<path d="M5555 3598 c4 -13 14 -30 22 -38 12 -13 13 -13 7 5 -4 11 -11 25 -15
31 -5 6 -6 14 -2 17 3 4 1 7 -6 7 -8 0 -10 -8 -6 -22z"/>
<path d="M5190 3576 c0 -8 4 -17 9 -20 5 -4 7 3 4 14 -6 23 -13 26 -13 6z"/>
<path d="M5269 3564 c-1 -5 -1 -12 0 -16 0 -4 3 -26 6 -48 6 -52 11 -59 33
-55 9 2 20 4 23 4 12 2 16 25 10 44 -7 18 -8 18 -21 1 -8 -10 -10 -15 -3 -11
6 4 14 3 18 -3 6 -9 2 -12 -27 -14 -6 -1 -12 8 -14 19 -7 54 -22 103 -25 79z"/>
<path d="M5190 3528 c0 -10 58 -108 75 -125 19 -19 19 -30 -1 -41 -20 -11 -64
-3 -64 12 0 6 -4 5 -9 -3 -5 -7 -26 -15 -47 -17 -22 -3 -50 -6 -64 -7 -14 -2
-35 3 -48 11 -30 20 -110 17 -133 -4 -26 -23 -18 -28 16 -10 29 15 50 12 40
-5 -4 -5 3 -9 14 -9 12 0 21 -3 21 -6 0 -6 -44 -51 -72 -72 -15 -12 -17 -11
-15 10 0 13 9 29 19 36 10 7 18 21 18 30 0 13 -2 14 -9 4 -4 -7 -18 -14 -30
-15 -13 -1 -20 -6 -17 -14 3 -7 -1 -27 -8 -45 -16 -38 -61 -48 -71 -16 -4 10
-11 18 -17 18 -7 0 -7 -5 1 -14 6 -7 9 -20 6 -28 -3 -8 2 -21 11 -29 10 -8 15
-9 11 -2 -8 13 3 22 33 28 18 3 25 -9 22 -37 -1 -3 5 -9 13 -12 11 -4 12 0 6
17 -5 14 -3 26 8 38 9 10 18 17 21 17 16 -3 51 26 46 38 -3 8 -2 13 2 10 16
-10 54 26 49 45 -4 16 -3 17 17 5 11 -8 29 -12 38 -11 11 2 15 -2 11 -11 -3
-7 -8 -13 -11 -12 -19 2 -35 -3 -29 -9 4 -3 -3 -14 -15 -22 -13 -9 -24 -20
-25 -26 -1 -5 -4 -17 -7 -25 -4 -8 5 -28 19 -44 15 -18 23 -36 20 -47 -4 -12
2 -23 20 -35 29 -19 34 -44 8 -42 -10 1 -27 0 -38 -1 -16 -1 -17 -3 -6 -10 7
-5 27 -5 42 -1 17 5 29 5 29 -1 0 -5 3 -8 8 -8 4 1 9 1 12 0 3 -1 25 -4 50 -6
25 -2 59 -6 75 -10 17 -4 35 -7 41 -7 6 -1 9 -10 6 -20 -3 -12 1 -18 12 -18
24 0 20 -19 -6 -30 -17 -6 -18 -9 -6 -9 9 -1 19 3 23 8 3 6 14 8 25 6 11 -2
22 0 25 6 4 5 -3 9 -13 9 -11 0 -22 7 -26 15 -3 8 -1 15 4 15 6 0 10 -5 10
-11 0 -8 5 -7 16 1 13 12 7 16 -43 32 -32 11 -68 21 -80 23 -30 4 -44 15 -37
26 3 6 -12 7 -40 4 -36 -5 -46 -4 -44 7 2 7 -2 12 -8 11 -6 -1 -21 20 -34 47
-13 28 -27 50 -32 50 -5 0 -7 4 -3 9 3 5 1 12 -5 16 -18 11 -11 24 39 74 54
54 86 68 96 42 6 -15 8 -14 19 2 8 10 23 16 37 14 27 -5 69 11 69 25 0 5 5 6
10 3 6 -3 10 -3 10 2 -2 16 -79 157 -80 144 0 -11 -4 -9 -15 5 -8 10 -15 16
-15 12z m-15 -477 c3 -5 1 -12 -5 -16 -5 -3 -10 1 -10 9 0 18 6 21 15 7z"/>
<path d="M7000 3455 c13 -14 27 -25 31 -25 5 0 -3 11 -17 25 -14 14 -28 25
-31 25 -4 0 4 -11 17 -25z"/>
<path d="M5991 3466 c2 -2 15 -9 29 -15 24 -11 24 -11 6 3 -16 13 -49 24 -35
12z"/>
<path d="M5150 3448 c0 -9 9 -26 20 -39 l21 -24 -17 35 c-21 43 -24 47 -24 28z"/>
<path d="M5610 3450 c0 -7 -3 -10 -6 -7 -10 9 -45 -13 -39 -24 4 -5 11 -7 16
-4 5 4 9 -2 9 -13 0 -10 3 -22 7 -25 3 -4 7 -18 8 -32 1 -33 -16 -37 -137 -39
-118 -2 -132 10 -55 49 29 14 41 23 27 20 -14 -3 -36 -8 -50 -11 -29 -6 -41
-21 -37 -49 3 -29 13 -33 70 -27 29 2 79 5 112 6 l60 1 -2 -59 c-2 -59 -21
-96 -50 -96 -7 0 -13 -4 -13 -10 0 -5 -24 -10 -52 -10 -36 0 -48 -3 -38 -9 8
-6 18 -7 24 -4 14 9 34 -25 28 -50 -7 -33 -21 -47 -39 -40 -11 4 -14 3 -9 -6
4 -7 20 -10 36 -8 24 4 31 -1 49 -34 12 -21 27 -39 32 -39 6 0 9 -6 6 -12 -2
-7 -11 -11 -18 -10 -8 2 -11 0 -6 -4 4 -4 -2 -17 -12 -28 -11 -12 -22 -32 -24
-46 -3 -14 -12 -43 -21 -65 l-16 -40 20 25 c11 14 20 29 20 34 0 19 45 98 60
105 8 4 25 6 38 5 12 -1 29 -2 37 -3 19 -1 20 -31 1 -31 -15 0 -72 -112 -65
-127 2 -4 15 -7 28 -5 15 2 22 -1 19 -10 -3 -7 -10 -13 -16 -13 -5 0 -14 -3
-18 -7 -4 -5 -1 -8 7 -8 8 0 20 5 26 11 8 8 17 8 31 0 28 -15 65 -14 56 1 -10
16 -5 99 6 113 6 7 1 11 -15 13 -13 1 -27 -3 -30 -8 -3 -6 1 -10 9 -10 12 0
15 -8 12 -32 -3 -18 -5 -39 -5 -45 -1 -18 -15 -16 -56 8 -26 15 -33 25 -26 32
6 6 11 19 11 29 0 19 33 42 44 30 4 -3 4 1 1 10 -7 18 10 34 20 18 5 -8 12 -7
23 2 12 10 14 10 8 1 -5 -9 2 -13 26 -14 18 -1 37 -1 41 0 5 1 5 -4 2 -10 -4
-6 -16 -9 -26 -6 -20 5 -20 8 -4 -69 4 -15 0 -36 -9 -49 -14 -21 -12 -35 5
-35 18 0 31 90 16 108 -16 20 7 30 51 22 27 -4 41 -2 50 10 8 8 11 9 7 2 -4
-7 -2 -19 5 -26 6 -8 8 -26 4 -42 -5 -19 -4 -25 5 -20 6 4 11 14 11 22 0 8 3
14 8 15 4 0 43 2 87 4 44 1 98 6 120 10 22 4 48 8 57 9 10 1 21 6 25 11 5 4 2
5 -4 1 -7 -4 -13 -2 -13 4 0 7 -8 9 -19 5 -12 -4 -21 0 -25 12 -4 10 -7 19 -7
21 1 1 -6 19 -15 40 -20 48 -34 120 -23 124 5 2 4 10 -1 18 -8 13 -10 12 -11
-2 -4 -66 8 -138 23 -138 5 0 6 -4 3 -10 -3 -5 1 -23 10 -41 9 -17 14 -33 11
-36 -9 -9 -113 -4 -139 6 -13 5 -39 12 -58 15 -34 6 -96 22 -104 28 -2 2 -11
-6 -20 -17 -15 -19 -15 -19 -13 -1 3 16 -14 24 -104 53 -78 25 -109 40 -113
54 -4 10 -13 19 -21 19 -8 0 -14 7 -14 15 0 29 59 18 94 -19 l33 -33 99 3 c99
2 153 14 155 34 1 5 3 15 4 20 1 6 3 14 4 19 0 5 8 17 17 26 9 9 14 18 11 21
-9 9 -38 -28 -44 -58 -3 -16 -13 -32 -22 -37 -23 -12 -221 -12 -221 0 0 5 -7
9 -17 9 -9 0 -14 3 -10 6 3 4 0 13 -8 21 -22 22 -18 29 18 30 17 1 55 7 82 13
28 6 60 12 72 14 12 3 30 10 40 16 17 11 17 11 -1 6 -24 -8 -199 -36 -243 -40
-18 -1 -33 2 -33 8 0 7 -3 8 -8 1 -4 -5 -17 -11 -29 -11 -20 -1 -23 4 -23 32
0 34 5 41 64 87 27 22 29 29 38 137 5 62 6 116 1 119 -11 7 -10 22 1 39 4 7 5
16 2 19 -3 4 -6 0 -6 -7z m367 -657 c5 -14 -59 -9 -84 7 -14 8 -7 10 31 8 27
-2 51 -8 53 -15z"/>
<path d="M5636 3452 c-3 -5 0 -9 7 -9 7 0 29 -8 50 -18 32 -15 40 -15 54 -4
12 10 14 10 9 2 -6 -12 4 -15 39 -13 3 1 12 -5 20 -12 34 -31 50 -43 55 -42
18 2 70 -42 81 -68 14 -34 19 -129 7 -122 -5 3 -8 1 -8 -5 0 -5 -13 -22 -30
-38 -16 -15 -30 -31 -30 -36 0 -13 40 17 46 36 3 9 9 15 14 12 4 -2 19 4 33
15 14 11 28 20 31 20 8 0 54 -48 65 -69 7 -12 19 -17 38 -15 15 1 41 2 56 3
20 1 26 5 21 14 -6 9 -5 9 7 0 9 -7 33 -11 55 -8 35 3 120 -8 167 -21 26 -8
57 -83 45 -108 -14 -27 -56 -63 -100 -86 -21 -11 -38 -25 -38 -31 0 -12 7 -8
76 38 28 19 57 45 64 59 8 13 19 24 27 24 19 0 16 20 -5 39 -22 19 -34 48 -23
55 5 3 11 2 15 -1 7 -7 11 -8 91 -19 69 -9 390 -16 382 -8 -3 3 -79 8 -169 9
-90 2 -174 6 -188 9 -14 3 -41 8 -60 10 -19 3 -52 10 -72 15 -21 5 -38 7 -38
5 0 -3 -8 0 -18 5 -43 23 -219 43 -230 26 -8 -12 -52 -15 -52 -3 0 4 -7 8 -15
8 -8 0 -15 5 -15 10 0 6 -4 10 -10 10 -17 0 -56 47 -51 61 7 17 31 23 31 7 0
-6 3 -8 7 -4 4 4 -3 16 -17 27 -21 16 -21 18 -5 13 16 -5 17 -4 5 4 -18 13
-33 5 -26 -14 7 -19 -43 -72 -53 -56 -8 13 -5 81 3 90 3 3 12 -1 21 -8 9 -7
15 -8 15 -2 0 6 -13 18 -29 29 -16 10 -54 38 -86 61 -77 59 -140 90 -200 98
-27 3 -53 8 -57 10 -4 2 -9 1 -12 -4z"/>
<path d="M7055 3401 c23 -27 105 -85 105 -75 0 4 9 -2 20 -14 24 -25 120 -77
120 -64 0 4 -18 16 -40 26 -22 10 -54 29 -70 43 -17 13 -30 22 -30 18 0 -3
-21 11 -47 31 -69 54 -81 62 -58 35z"/>
<path d="M5476 3382 c-3 -5 1 -9 9 -9 8 0 12 4 9 9 -3 4 -7 8 -9 8 -2 0 -6 -4
-9 -8z"/>
<path d="M5760 3375 c7 -9 15 -13 17 -11 7 7 -7 26 -19 26 -6 0 -6 -6 2 -15z"/>
<path d="M5310 3370 c0 -5 7 -7 15 -4 8 4 15 8 15 10 0 2 -7 4 -15 4 -8 0 -15
-4 -15 -10z"/>
<path d="M6383 3283 c9 -2 23 -2 30 0 6 3 -1 5 -18 5 -16 0 -22 -2 -12 -5z"/>
<path d="M5130 3251 c0 -5 -8 -8 -17 -7 -25 4 -74 -14 -68 -24 6 -10 27 -7 66
8 15 6 29 9 32 6 2 -2 10 2 17 11 10 13 9 15 -9 15 -11 0 -21 -4 -21 -9z"/>
<path d="M7310 3242 c0 -5 16 -16 35 -25 19 -9 35 -15 35 -13 0 2 -16 13 -35
25 -19 11 -35 17 -35 13z"/>
<path d="M7404 3192 c11 -12 24 -22 30 -22 5 0 30 -19 54 -42 25 -24 43 -38
41 -32 -5 13 -76 75 -114 99 l-30 18 19 -21z"/>
<path d="M4782 3165 c-11 -20 -5 -55 10 -55 5 0 6 -5 2 -12 -4 -6 -3 -8 3 -5
6 4 14 0 17 -9 3 -8 10 -13 15 -9 5 3 12 -3 16 -14 8 -26 42 -34 55 -13 5 10
10 13 10 7 0 -5 21 -11 48 -11 l47 -2 -42 18 c-22 10 -44 27 -47 38 -6 18 -36
27 -36 10 0 -5 -4 -7 -9 -3 -6 3 -14 -3 -20 -12 -5 -10 -13 -18 -16 -18 -12 0
-44 70 -35 75 5 3 5 12 1 19 -7 11 -11 10 -19 -4z m136 -93 c2 -7 0 -12 -5
-11 -22 4 -34 -2 -27 -13 4 -7 -2 -5 -14 6 -12 10 -19 23 -16 28 8 13 57 5 62
-10z"/>
<path d="M6126 3165 c10 -8 23 -15 28 -15 6 0 1 7 -10 15 -10 8 -23 15 -28 15
-6 0 -1 -7 10 -15z"/>
<path d="M4930 3136 c0 -2 7 -7 16 -10 8 -3 12 -2 9 4 -6 10 -25 14 -25 6z"/>
<path d="M6158 3133 c7 -3 16 -2 19 1 4 3 -2 6 -13 5 -11 0 -14 -3 -6 -6z"/>
<path d="M5216 3091 c-6 -9 51 -7 61 3 4 3 -8 6 -25 6 -17 0 -33 -4 -36 -9z"/>
<path d="M6069 3076 c-2 -3 -16 -7 -29 -10 -14 -2 -36 -9 -50 -15 -21 -9 -18
-10 20 -5 99 13 99 13 95 -18 -5 -39 5 -98 17 -98 5 0 7 4 4 8 -3 5 -6 30 -7
58 -2 67 -8 91 -20 73 -6 -10 -9 -11 -9 -1 0 12 -12 16 -21 8z"/>
<path d="M6978 3033 c7 -3 16 -2 19 1 4 3 -2 6 -13 5 -11 0 -14 -3 -6 -6z"/>
<path d="M7075 3015 c56 -16 77 -19 55 -6 -8 5 -35 11 -60 15 l-45 6 50 -15z"/>
<path d="M7150 3000 c0 -12 28 -21 35 -11 2 5 -4 11 -15 14 -11 3 -20 2 -20
-3z"/>
<path d="M7203 2984 c7 -8 31 -17 117 -48 54 -20 140 -65 158 -83 8 -7 17 -11
22 -8 5 3 10 1 12 -4 1 -5 40 -36 86 -70 46 -34 85 -68 88 -76 4 -8 10 -12 15
-9 5 3 9 -1 9 -9 0 -8 10 -22 23 -33 22 -19 22 -19 5 2 -10 11 -18 25 -18 31
0 6 -18 26 -41 44 -22 19 -66 59 -97 89 -31 29 -60 53 -64 52 -4 -1 -5 4 -2
11 2 7 -7 23 -20 36 -24 23 -25 23 -19 2 3 -12 9 -24 14 -27 5 -3 9 -9 9 -15
0 -5 -24 4 -52 20 -76 42 -265 116 -245 95z"/>
<path d="M6500 2958 c0 -3 7 -21 15 -39 16 -34 16 -34 10 -4 -6 26 -25 60 -25
43z"/>
<path d="M5215 2926 c-16 -8 -38 -20 -49 -28 -16 -13 -15 -14 17 -10 27 3 34
8 30 20 -4 10 -2 13 5 8 6 -3 13 -2 17 4 4 6 11 8 16 5 5 -4 9 -1 9 4 0 14 -8
13 -45 -3z"/>
<path d="M6137 2877 c9 -26 21 -47 25 -47 9 0 -18 70 -33 85 -5 5 -2 -12 8
-38z"/>
<path d="M5250 2892 c0 -4 13 -16 29 -27 26 -17 66 -75 42 -61 -5 3 -11 -1
-15 -9 -3 -9 3 -19 14 -25 19 -10 19 -13 4 -48 -19 -48 -27 -55 -60 -56 -15
-1 -29 -6 -31 -12 -2 -7 6 -10 24 -7 38 6 73 24 67 35 -3 4 0 8 6 8 6 0 8 5 4
11 -4 7 1 10 12 7 28 -5 28 -31 0 -60 -22 -22 -33 -24 -93 -23 -37 1 -79 6
-93 12 -14 6 -28 9 -32 7 -4 -3 -10 6 -14 18 -3 13 -15 35 -26 50 -10 15 -21
45 -24 67 -5 37 -2 44 28 71 22 21 26 29 13 24 -11 -4 -24 -13 -28 -21 -4 -7
-14 -13 -22 -13 -7 0 -16 -8 -19 -18 -7 -20 17 -87 35 -97 5 -4 8 -13 5 -21
-3 -8 -1 -14 5 -14 6 0 7 -4 4 -10 -10 -16 41 -61 61 -53 12 4 15 3 10 -5 -8
-14 8 -16 108 -13 52 2 74 7 85 20 9 9 27 25 41 34 20 14 21 17 7 17 -11 0
-15 5 -12 11 4 6 -2 19 -14 30 -23 22 -19 49 7 43 18 -4 69 32 59 42 -3 3 -20
-1 -38 -10 -47 -23 -59 -20 -59 14 0 17 -4 30 -9 30 -5 0 -12 8 -15 18 -6 17
-66 48 -66 34z"/>
<path d="M6520 2869 c0 -5 -15 -16 -33 -24 -18 -7 -54 -34 -81 -59 -26 -25
-50 -45 -54 -44 -4 0 -25 -7 -47 -17 -22 -9 -53 -20 -69 -22 -16 -3 -38 -9
-50 -13 -15 -7 -11 -8 19 -5 56 5 81 12 117 30 53 26 65 21 65 -29 l0 -44 -56
4 c-31 3 -69 6 -86 9 -16 2 -44 5 -61 7 -18 1 -30 7 -28 12 3 8 -20 9 -68 6
-117 -8 -190 1 -199 25 l-8 20 -1 -20 c-2 -11 -2 -25 -1 -31 1 -6 -18 -10 -49
-8 -27 1 -48 -1 -46 -5 2 -3 28 -5 58 -3 116 6 179 2 191 -13 5 -6 7 -3 3 7
-5 15 0 17 32 12 20 -3 41 -8 46 -12 5 -3 6 1 1 9 -7 11 -6 12 6 2 16 -12 151
-30 251 -32 21 -1 31 -10 50 -47 12 -26 28 -49 35 -51 7 -3 11 -8 8 -12 -2 -4
9 -15 26 -25 16 -9 29 -14 29 -11 0 4 7 -1 16 -9 26 -26 86 -24 126 5 15 10
31 19 36 19 4 0 21 -18 38 -41 16 -22 53 -72 83 -111 46 -62 52 -76 48 -105
-3 -18 -2 -33 4 -33 5 0 9 9 9 19 0 11 5 21 11 23 5 2 -11 33 -38 68 -26 36
-61 86 -77 110 -17 25 -39 55 -50 68 -15 17 -20 37 -21 86 -1 92 -31 147 -128
233 -21 18 -37 39 -37 48 0 8 -4 15 -10 15 -5 0 -10 -5 -10 -11z m37 -58 c91
-56 135 -134 132 -232 -3 -75 -23 -99 -82 -99 -23 0 -51 7 -61 15 -10 8 -23
12 -27 9 -16 -10 -9 3 18 32 15 16 35 28 45 26 26 -5 22 7 -7 18 -57 22 -89
137 -44 160 15 9 24 8 35 -1 8 -6 14 -8 14 -4 0 9 44 -45 59 -72 18 -34 13
-70 -11 -87 l-22 -16 21 0 c59 0 53 110 -8 171 -24 24 -68 42 -85 35 -18 -7
-45 -61 -41 -83 1 -11 14 -37 27 -58 14 -22 26 -43 28 -46 1 -3 -9 -18 -23
-33 -14 -15 -25 -22 -25 -17 0 6 -6 11 -14 11 -8 0 -17 7 -20 16 -3 8 -11 12
-17 8 -8 -4 -9 -3 -5 4 4 7 1 12 -6 12 -9 0 -9 3 2 10 13 9 8 14 -11 12 -4 -1
-5 8 -2 18 3 12 0 20 -8 20 -7 0 -9 3 -6 6 3 4 2 15 -4 25 -7 13 -6 19 1 19 6
0 8 5 5 11 -9 14 -13 69 -5 64 4 -3 13 7 20 21 12 21 49 40 85 43 6 1 24 -8
42 -18z"/>
<path d="M6295 2838 c-11 -7 -31 -14 -45 -16 -14 -2 -29 -8 -35 -14 -7 -7 -3
-8 12 -4 12 4 32 9 44 11 13 3 30 11 38 20 18 18 13 19 -14 3z"/>
<path d="M5120 2832 c0 -16 13 -22 26 -11 8 7 14 7 19 -1 10 -16 -6 -30 -41
-36 -35 -6 -38 -9 -29 -24 5 -9 10 -9 18 -1 6 6 22 11 35 11 15 0 26 7 29 20
3 11 10 20 15 20 5 0 6 5 3 10 -4 6 -11 8 -16 5 -5 -4 -9 -1 -9 4 0 6 -11 11
-25 11 -14 0 -25 -4 -25 -8z"/>
<path d="M5085 2820 c4 -6 11 -8 16 -5 14 9 11 15 -7 15 -8 0 -12 -5 -9 -10z"/>
<path d="M5144 2718 c-3 -5 -10 -6 -15 -3 -5 4 -9 2 -9 -4 0 -5 5 -13 10 -16
6 -3 10 -1 10 4 0 6 6 11 14 11 8 0 17 4 20 8 3 5 -2 9 -10 9 -8 0 -17 -4 -20
-9z"/>
<path d="M5563 2701 c3 -11 1 -18 -4 -15 -5 3 -12 -1 -15 -10 -3 -8 -29 -25
-58 -39 -50 -24 -104 -68 -60 -49 50 21 94 47 94 54 0 5 5 6 10 3 6 -3 10 -1
10 5 0 6 4 9 9 5 14 -8 40 22 37 42 -2 9 -9 19 -16 21 -9 3 -11 -2 -7 -17z"/>
<path d="M5695 2660 c-3 -11 -11 -20 -16 -20 -5 0 -22 -11 -36 -24 -15 -14
-31 -22 -36 -19 -6 4 -7 1 -3 -6 6 -9 12 -8 26 4 11 10 20 12 24 6 3 -5 19 4
35 20 16 16 40 29 53 29 21 1 21 2 5 11 -13 8 -22 7 -33 -2 -12 -10 -13 -9 -8
5 3 9 4 16 1 16 -3 0 -9 -9 -12 -20z"/>
<path d="M5382 2635 c-6 -14 -8 -25 -3 -25 4 0 13 11 19 25 6 14 8 25 3 25 -4
0 -13 -11 -19 -25z"/>
<path d="M5785 2634 c29 -23 55 -36 55 -27 0 4 -17 16 -38 26 -30 14 -33 14
-17 1z"/>
<path d="M6050 2642 c0 -15 71 -31 156 -36 82 -5 58 6 -36 17 -53 6 -100 16
-112 23 -4 3 -8 1 -8 -4z"/>
<path d="M5850 2605 c0 -7 147 -76 172 -80 32 -7 9 13 -30 25 -36 11 -88 33
-124 52 -10 5 -18 6 -18 3z"/>
<path d="M6298 2603 c7 -3 16 -2 19 1 4 3 -2 6 -13 5 -11 0 -14 -3 -6 -6z"/>
<path d="M5313 2542 c-29 -31 -53 -63 -53 -71 0 -9 9 -29 20 -46 12 -18 20
-24 20 -14 0 9 -3 19 -7 23 -11 11 -10 50 1 58 5 4 16 -1 23 -10 12 -15 13
-14 3 5 -9 19 -5 27 26 58 20 20 32 40 28 44 -5 4 -33 -17 -61 -47z"/>
<path d="M5550 2569 c0 -5 5 -7 10 -4 6 3 10 8 10 11 0 2 -4 4 -10 4 -5 0 -10
-5 -10 -11z"/>
<path d="M5669 2573 c-1 -5 -3 -75 -5 -157 -3 -147 -2 -150 26 -205 29 -59 69
-100 160 -168 30 -22 66 -50 79 -62 26 -23 31 -25 31 -13 0 5 -21 24 -47 43
-52 36 -95 72 -124 103 -11 11 -19 16 -19 10 0 -5 -9 6 -20 24 -11 17 -24 32
-29 32 -10 0 -32 53 -37 90 -2 14 -3 89 -4 168 0 78 -3 142 -5 142 -3 0 -6 -3
-6 -7z"/>
<path d="M7977 2555 c10 -13 22 -25 27 -25 5 0 -1 11 -14 25 -30 32 -36 32
-13 0z"/>
<path d="M5479 2537 c-30 -18 -69 -46 -86 -64 -17 -17 -34 -29 -39 -25 -4 4
-4 2 -1 -4 7 -13 -28 -45 -39 -36 -4 4 -4 1 0 -6 10 -18 36 -2 108 69 34 32
67 59 73 59 7 0 20 9 30 20 23 26 21 25 -46 -13z"/>
<path d="M6050 2518 c0 -4 6 -8 14 -8 8 0 21 -3 30 -6 9 -3 16 -2 16 4 0 5
-13 12 -30 14 -16 3 -30 1 -30 -4z"/>
<path d="M6151 2496 c19 -6 37 -15 41 -20 5 -7 8 -7 8 1 0 7 7 10 15 7 10 -4
15 -19 15 -43 0 -20 6 -56 14 -81 7 -25 11 -51 9 -57 -3 -7 0 -13 6 -13 10 0
10 4 -4 75 -5 22 -9 58 -10 80 l-1 40 61 1 c79 1 136 7 140 14 2 3 -71 5 -162
5 -120 0 -156 -3 -132 -9z"/>
<path d="M8030 2495 c0 -11 134 -154 165 -175 11 -8 -18 24 -64 72 -46 47 -87
92 -92 99 -5 8 -9 10 -9 4z"/>
<path d="M5629 2448 c-3 -79 -11 -131 -23 -139 -5 -4 -9 -17 -10 -30 -1 -22
17 -47 57 -78 15 -12 17 -12 11 3 -3 9 -13 16 -21 16 -8 0 -11 5 -8 10 3 6 2
10 -3 10 -6 0 -8 10 -4 22 3 14 1 19 -6 14 -6 -3 -14 -1 -18 5 -4 7 -3 9 4 5
16 -10 20 3 27 94 4 47 9 88 11 92 3 4 0 9 -6 13 -6 4 -11 -11 -11 -37z"/>
<path d="M7830 2482 c0 -5 7 -15 15 -22 8 -7 15 -8 15 -2 0 5 -7 15 -15 22 -8
7 -15 8 -15 2z"/>
<path d="M6190 2445 c0 -8 4 -15 8 -15 5 0 9 7 9 15 0 8 -4 15 -9 15 -4 0 -8
-7 -8 -15z"/>
<path d="M7870 2442 c0 -4 26 -24 57 -46 32 -21 51 -31 44 -22 -18 21 -101 78
-101 68z"/>
<path d="M6195 2398 c29 -132 48 -209 60 -240 8 -21 13 -38 10 -38 -2 0 2 -19
10 -41 8 -23 15 -52 15 -64 0 -37 -105 -135 -144 -135 -15 0 -102 44 -152 77
-13 8 -24 11 -24 7 0 -11 49 -44 119 -80 43 -22 57 -25 70 -16 9 7 25 16 36
21 24 10 115 96 115 108 0 4 -5 24 -11 43 -5 19 -12 46 -15 60 -3 14 -9 39
-14 55 -15 45 -43 148 -46 165 -2 8 -6 31 -10 50 -4 19 -7 38 -6 43 1 4 -3 7
-8 7 -6 0 -8 -10 -5 -22z"/>
<path d="M5290 2369 c0 -5 -3 -8 -8 -5 -10 6 -132 -107 -132 -123 0 -12 13
-15 24 -4 4 4 19 8 33 9 l26 1 -26 -19 c-15 -11 -27 -27 -28 -36 0 -13 -3 -11
-11 6 -19 39 -28 25 -19 -31 0 -5 5 -5 11 -2 6 4 7 -2 1 -17 -5 -13 -5 -33 0
-46 5 -13 5 -21 0 -18 -11 7 -26 -11 -35 -41 -5 -15 -3 -23 5 -23 7 0 9 3 6 6
-3 4 -2 15 4 25 10 20 54 26 64 9 5 -8 11 -8 19 -1 8 7 16 7 22 1 5 -5 30 -12
54 -14 31 -3 50 -11 63 -28 11 -12 22 -22 25 -20 9 5 21 -31 14 -42 -3 -6 -7
-33 -8 -60 -6 -134 -24 -195 -64 -216 -27 -14 -143 -15 -169 -1 -12 7 -18 17
-15 26 4 8 10 12 16 9 5 -3 3 8 -6 24 -9 18 -16 55 -16 87 0 31 -3 54 -8 51
-4 -2 -7 -45 -6 -95 1 -80 3 -94 23 -112 12 -11 19 -26 15 -32 -3 -7 0 -5 8 3
9 11 32 15 78 15 49 -1 73 4 97 20 37 23 44 36 49 85 2 19 6 62 9 95 4 33 6
70 6 83 -1 35 27 39 55 8 14 -14 30 -26 36 -26 10 0 -11 22 -61 63 -12 9 -25
17 -30 17 -4 0 -13 11 -19 24 -9 20 -24 26 -102 41 -91 18 -127 36 -113 58 4
6 9 26 12 45 3 18 10 32 15 32 5 -1 13 5 18 14 5 8 24 18 43 22 19 3 35 11 35
18 0 6 5 4 10 -4 9 -13 10 -13 10 0 0 12 2 12 9 2 7 -11 9 -11 13 0 4 10 -4
14 -28 14 -19 0 -34 -4 -34 -8 0 -4 -5 -8 -11 -8 -5 0 -7 4 -4 10 3 5 0 7 -9
4 -8 -3 -24 -1 -35 5 -20 11 -20 11 2 34 12 13 25 22 28 21 3 -2 19 10 34 26
16 17 23 30 17 30 -7 0 -12 -5 -12 -11z"/>
<path d="M5970 2359 c1 -8 7 -27 16 -44 12 -26 13 -27 9 -5 -3 14 -7 30 -9 37
-3 19 -16 28 -16 12z"/>
<path d="M7990 2356 c0 -2 7 -7 16 -10 8 -3 12 -2 9 4 -6 10 -25 14 -25 6z"/>
<path d="M8059 2319 c18 -11 35 -18 38 -15 5 5 -50 36 -64 36 -4 0 7 -9 26
-21z"/>
<path d="M8111 2296 c19 -17 69 -34 74 -26 4 6 3 10 -2 9 -4 -1 -21 3 -36 9
-28 12 -44 15 -36 8z"/>
<path d="M8231 2297 c2 -1 13 -9 24 -17 19 -14 19 -14 6 3 -7 9 -18 17 -24 17
-6 0 -8 -1 -6 -3z"/>
<path d="M5539 2277 c-9 -7 -14 -18 -11 -25 3 -10 8 -8 18 5 13 17 14 17 8 0
-5 -13 -2 -16 10 -11 12 5 13 10 5 25 -11 22 -10 22 -30 6z"/>
<path d="M5737 2282 c-13 -3 -16 -11 -13 -30 2 -15 5 -30 5 -34 1 -3 9 -5 19
-3 9 2 20 4 25 4 12 2 8 48 -5 58 -7 5 -21 8 -31 5z m31 -35 c2 -11 -3 -17
-16 -17 -18 0 -20 6 -13 38 3 11 27 -7 29 -21z"/>
<path d="M5376 2270 c-27 -9 -8 -17 37 -15 20 1 37 -3 37 -9 0 -6 5 -4 10 4 5
8 10 10 10 5 0 -6 12 -12 26 -13 17 -1 24 2 21 11 -2 7 -22 12 -49 13 -25 0
-51 3 -59 6 -8 3 -23 2 -33 -2z"/>
<path d="M6015 2243 c9 -21 21 -42 27 -48 7 -7 9 -7 6 0 -2 6 -12 27 -22 48
-9 20 -19 37 -22 37 -2 0 3 -17 11 -37z"/>
<path d="M6260 2275 c0 -4 4 -14 10 -24 5 -10 11 -30 14 -45 8 -46 38 -117 48
-114 6 2 31 -18 58 -44 26 -26 51 -44 54 -41 3 4 6 2 6 -4 0 -12 87 -32 159
-38 28 -2 51 1 51 6 0 5 -19 9 -42 10 -24 0 -50 2 -58 4 -8 1 -29 5 -46 8 -46
7 -65 20 -128 84 -55 56 -87 107 -101 166 -6 24 -25 48 -25 32z"/>
<path d="M8289 2251 c12 -21 71 -46 71 -30 0 6 -13 15 -30 20 -16 6 -30 15
-30 20 0 5 -5 9 -10 9 -7 0 -7 -6 -1 -19z"/>
<path d="M6881 2175 c-7 -24 -26 -61 -42 -82 -15 -21 -28 -42 -29 -48 0 -5 5
-3 10 5 5 8 17 15 27 15 10 1 17 6 16 12 -2 7 5 29 14 50 22 54 33 93 24 93
-3 0 -13 -20 -20 -45z"/>
<path d="M6841 2158 c-11 -24 -33 -57 -48 -73 -24 -26 -40 -55 -30 -55 9 0 79
102 92 133 21 51 10 46 -14 -5z"/>
<path d="M5670 2170 c0 -4 34 -42 75 -83 41 -42 75 -73 75 -70 0 4 6 0 13 -9
19 -24 69 -54 62 -37 -3 8 -25 26 -48 41 -24 15 -73 59 -110 97 -37 38 -67 66
-67 61z"/>
<path d="M6050 2174 c0 -5 7 -18 15 -28 8 -11 15 -16 15 -10 0 5 -7 18 -15 28
-8 11 -15 16 -15 10z"/>
<path d="M6326 2065 c4 -11 6 -29 6 -39 -1 -14 2 -16 10 -8 8 8 15 9 25 1 9
-8 13 -8 13 -1 0 6 -8 13 -19 17 -10 3 -23 15 -30 28 -9 17 -10 17 -5 2z"/>
<path d="M6726 2005 c-9 -14 -23 -25 -31 -25 -7 0 -16 -4 -19 -9 -3 -4 6 -6
20 -3 14 2 31 17 40 33 18 36 12 38 -10 4z"/>
<path d="M5276 1999 c-11 -11 -25 -19 -33 -19 -7 0 -13 -4 -13 -8 0 -17 30 -8
52 15 26 28 21 38 -6 12z"/>
<path d="M5310 2012 c0 -5 7 -9 15 -9 8 0 15 4 15 9 0 4 -7 8 -15 8 -8 0 -15
-4 -15 -8z"/>
<path d="M6157 2003 c-4 -3 -7 -16 -7 -28 0 -27 25 -52 35 -35 3 6 10 8 15 5
17 -11 22 37 5 54 -15 15 -15 14 -5 -14 6 -16 8 -26 4 -22 -4 4 -13 2 -20 -4
-19 -16 -31 16 -14 36 12 15 0 22 -13 8z"/>
<path d="M6392 1999 c5 -16 48 -44 48 -31 0 5 -12 17 -26 27 -17 11 -25 13
-22 4z"/>
<path d="M6853 1989 c-1 -10 2 -19 6 -19 4 0 22 -27 41 -60 27 -48 36 -57 47
-48 11 9 9 14 -12 28 -24 15 -24 18 -8 24 11 5 22 1 30 -10 9 -13 16 -15 24
-7 7 7 -4 17 -38 33 -54 25 -85 49 -78 61 3 4 2 10 -3 13 -4 2 -9 -4 -9 -15z"/>
<path d="M6340 1992 c0 -13 -95 -112 -107 -112 -5 -1 -18 -9 -29 -19 -39 -34
-61 -35 -122 -5 -31 15 -66 36 -76 46 -11 10 -26 18 -33 18 -7 0 -13 3 -13 8
0 10 -41 35 -47 29 -8 -8 145 -107 190 -123 50 -18 73 -13 110 21 15 14 27 23
27 20 0 -12 52 30 59 48 6 16 18 5 71 -65 86 -110 95 -121 167 -197 35 -36 63
-71 63 -77 0 -17 97 -97 120 -99 3 0 11 -4 19 -9 9 -6 12 -5 7 2 -6 11 7 10
36 -2 20 -9 38 0 37 17 0 9 -2 9 -5 0 -4 -8 -14 -8 -40 3 -19 8 -34 11 -34 7
0 -5 -4 -2 -9 5 -4 7 -18 14 -30 15 -22 1 -49 22 -83 65 -10 12 -15 22 -11 22
4 0 -34 42 -84 93 -88 88 -110 115 -169 201 -23 34 -24 42 -13 62 7 13 9 27 6
31 -4 3 -7 1 -7 -5z"/>
<path d="M7100 1986 c0 -8 9 -16 19 -19 13 -3 18 -1 14 8 -7 19 -33 27 -33 11z"/>
<path d="M5741 1926 c-17 -24 -45 -56 -63 -71 -18 -15 -37 -35 -42 -44 -13
-21 48 31 77 66 34 42 69 93 63 93 -3 0 -19 -20 -35 -44z"/>
<path d="M6455 1962 c18 -17 55 -24 55 -11 0 7 -3 10 -6 6 -3 -3 -18 -1 -33 4
-15 6 -22 6 -16 1z"/>
<path d="M6698 1947 c-33 -13 -36 -22 -8 -24 11 -1 25 7 30 18 6 10 9 19 8 18
-2 -1 -15 -6 -30 -12z"/>
<path d="M6537 1941 c30 -13 123 -20 123 -10 0 5 -12 9 -27 10 -16 0 -48 2
-73 5 -34 3 -40 2 -23 -5z"/>
<path d="M7172 1925 c3 -13 0 -22 -8 -22 -7 0 -10 7 -7 15 5 12 2 12 -15 3
-11 -6 -24 -16 -27 -21 -4 -6 -11 -8 -16 -5 -5 4 -9 2 -9 -3 0 -5 -7 -9 -15
-9 -10 0 -13 6 -9 19 5 18 -10 26 -20 9 -3 -5 -15 -7 -26 -4 -23 6 -26 -6 -7
-26 10 -11 10 -13 0 -7 -7 4 -13 3 -13 -2 0 -5 -10 -8 -21 -8 -12 1 -24 -5
-27 -13 -3 -8 0 -11 6 -7 7 4 9 -7 7 -34 -2 -22 1 -43 7 -46 7 -4 6 -9 -3 -14
-8 -6 -10 -13 -3 -22 5 -7 9 -27 9 -44 -1 -20 6 -36 17 -43 14 -9 17 -8 16 1
-2 7 -7 16 -13 20 -6 5 -5 8 2 8 7 0 10 7 7 15 -4 8 -11 12 -18 9 -6 -3 -3 1
6 9 10 8 15 17 12 20 -4 3 -7 33 -8 65 -1 55 0 60 24 69 23 9 112 32 142 37 7
1 20 6 28 11 8 5 26 8 39 6 15 -2 21 1 16 8 -3 6 -11 9 -16 6 -5 -4 -9 -2 -9
3 0 5 -12 12 -26 15 -22 4 -25 2 -22 -18z"/>
<path d="M5482 1848 c0 -13 -1 -28 -3 -34 -2 -7 1 -13 6 -13 6 -1 11 10 13 25
3 20 8 25 23 21 12 -3 19 -1 16 6 -2 6 -15 12 -29 14 -21 3 -26 -1 -26 -19z"/>
<path d="M7290 1850 c5 -9 16 -22 25 -30 11 -9 12 -16 4 -26 -6 -7 -8 -23 -4
-35 6 -19 12 -43 14 -59 2 -10 51 -7 51 3 0 5 -9 11 -20 14 -28 8 -27 56 3 76
18 12 20 18 10 28 -7 7 -13 17 -13 22 0 4 6 5 13 1 8 -5 9 -4 2 4 -6 7 -29 13
-52 15 -36 3 -41 1 -33 -13z"/>
<path d="M5550 1840 c0 -6 12 -22 26 -35 15 -14 28 -35 30 -47 16 -110 33
-140 27 -47 -3 36 -12 72 -21 84 -22 29 -62 58 -62 45z"/>
<path d="M6926 1801 c-13 -38 -13 -79 1 -103 12 -22 13 -21 9 13 -1 20 -6 41
-10 47 -3 5 -1 12 5 14 6 2 9 15 7 28 l-4 25 -8 -24z"/>
<path d="M7390 1806 c-6 -9 -9 -20 -5 -26 4 -6 -1 -20 -10 -30 -11 -12 -13
-20 -6 -25 6 -3 15 5 21 19 5 14 12 26 14 26 10 0 30 -46 33 -75 7 -78 29
-139 46 -128 6 3 7 1 3 -5 -4 -6 1 -26 10 -44 22 -42 21 -134 -1 -150 -6 -5
-6 -8 1 -8 15 0 31 21 32 43 5 87 2 108 -27 166 -12 22 -19 41 -16 41 3 0 1 9
-4 19 -6 10 -13 35 -15 55 -5 42 -27 96 -39 96 -5 0 -6 4 -3 9 3 5 0 14 -8 20
-10 8 -16 8 -26 -3z"/>
<path d="M5327 1770 c-9 -11 -17 -25 -17 -31 0 -5 -4 -8 -9 -5 -10 7 -23 -19
-14 -28 9 -8 43 24 43 40 0 7 5 14 12 16 6 2 9 10 7 16 -3 8 -10 6 -22 -8z"/>
<path d="M5472 1768 c3 -7 20 -22 39 -33 l34 -19 -30 32 c-31 33 -50 42 -43
20z"/>
<path d="M6885 1767 c-14 -16 -13 -77 2 -102 12 -19 12 -19 13 3 0 13 -5 32
-10 43 -6 10 -7 19 -3 19 4 0 9 11 9 25 1 14 1 25 0 25 0 -1 -6 -6 -11 -13z"/>
<path d="M7470 1776 c0 -3 9 -23 20 -43 11 -21 20 -48 20 -61 0 -13 7 -36 15
-52 8 -16 20 -52 26 -79 6 -28 15 -54 21 -57 7 -4 8 -2 4 4 -4 6 -9 32 -12 58
-2 26 -7 50 -10 55 -3 5 -7 17 -9 26 -10 43 -38 108 -55 131 -11 14 -20 22
-20 18z"/>
<path d="M7405 1680 c-3 -5 -1 -10 4 -10 6 0 11 5 11 10 0 6 -2 10 -4 10 -3 0
-8 -4 -11 -10z"/>
<path d="M7273 1669 c-18 -5 -35 -14 -38 -19 -3 -6 -16 -10 -28 -10 -14 0 -46
-24 -87 -65 -41 -41 -68 -61 -74 -55 -9 9 -35 -15 -36 -33 0 -13 44 4 61 24 9
10 19 16 22 12 11 -10 38 19 33 34 -3 8 -2 11 3 8 5 -3 13 0 16 6 4 5 13 8 21
5 8 -3 11 0 7 10 -3 7 0 14 7 14 6 0 9 4 6 9 -4 5 2 7 13 4 11 -3 24 3 32 14
8 10 25 19 39 20 57 4 72 8 82 20 8 10 4 13 -18 12 -16 0 -43 -5 -61 -10z"/>
<path d="M5155 1611 c-3 -5 -2 -12 3 -15 5 -3 9 1 9 9 0 17 -3 19 -12 6z"/>
<path d="M7005 1608 c8 -36 18 -58 25 -58 11 0 -1 48 -15 60 -10 8 -13 8 -10
-2z"/>
<path d="M5146 1564 c-3 -8 -11 -12 -17 -8 -7 4 -9 3 -6 -3 4 -6 0 -17 -9 -24
-13 -11 -15 -29 -9 -114 4 -56 13 -129 21 -161 9 -39 12 -46 9 -19 -2 22 -8
72 -12 110 -14 127 -11 170 16 199 13 14 28 23 34 19 6 -3 7 -1 3 5 -10 17
-23 15 -30 -4z"/>
<path d="M5250 1566 c0 -2 7 -6 15 -10 8 -3 15 -1 15 4 0 6 -7 10 -15 10 -8 0
-15 -2 -15 -4z"/>
<path d="M5652 1536 c1 -20 5 -39 9 -41 9 -6 6 62 -4 71 -4 5 -7 -9 -5 -30z"/>
<path d="M6717 1550 c13 -14 29 -19 77 -25 37 -4 20 12 -19 18 -16 3 -39 8
-50 12 -16 7 -18 6 -8 -5z"/>
<path d="M5367 1539 c5 -5 20 -11 32 -14 13 -2 35 -12 50 -22 14 -10 30 -16
34 -15 5 1 6 -1 3 -6 -3 -4 7 -33 21 -62 20 -43 26 -69 26 -130 0 -67 1 -71 9
-35 5 22 8 57 6 77 -3 35 16 62 25 35 2 -8 5 -8 11 1 4 7 2 12 -3 12 -6 0 -14
0 -18 1 -9 1 -63 85 -63 97 0 15 -55 49 -99 60 -25 6 -39 6 -34 1z"/>
<path d="M6836 1504 c-10 -25 -1 -27 19 -4 15 17 16 20 3 20 -9 0 -19 -7 -22
-16z"/>
<path d="M7274 1495 c4 -16 8 -41 11 -53 2 -13 5 -24 7 -25 2 -1 19 -15 38
-32 l35 -30 -31 35 c-28 31 -39 57 -50 108 -1 8 -6 17 -10 20 -4 4 -4 -6 0
-23z"/>
<path d="M6980 1475 c-11 -13 -10 -14 4 -9 9 3 16 10 16 15 0 13 -6 11 -20 -6z"/>
<path d="M5653 1464 c-3 -8 -3 -46 1 -84 4 -42 2 -71 -4 -75 -13 -8 -13 -45 1
-45 5 0 9 8 8 18 -1 9 0 22 2 27 4 12 5 175 1 175 -1 0 -5 -7 -9 -16z"/>
<path d="M6760 1472 c0 -15 16 -23 53 -28 l32 -3 -30 11 c-16 6 -36 15 -42 21
-9 6 -13 6 -13 -1z"/>
<path d="M7571 1454 c0 -11 3 -14 6 -6 3 7 2 16 -1 19 -3 4 -6 -2 -5 -13z"/>
<path d="M6865 1449 c-16 -7 -13 -8 13 -5 19 3 36 7 40 10 9 9 -31 6 -53 -5z"/>
<path d="M7527 1363 c-4 -3 -7 -11 -7 -17 0 -6 5 -5 12 2 6 6 9 14 7 17 -3 3
-9 2 -12 -2z"/>
<path d="M7409 1345 c37 -17 60 -20 46 -6 -6 5 -26 12 -45 15 l-35 7 34 -16z"/>
<path d="M5649 1248 c-9 -31 -17 -90 -12 -84 4 4 8 12 9 19 1 7 4 24 7 40 3
15 4 27 1 27 -2 0 -4 -1 -5 -2z"/>
<path d="M5196 1214 c-21 -20 -20 -51 0 -72 15 -15 18 -14 35 7 10 13 16 28
12 34 -4 7 -9 4 -13 -7 -9 -26 -24 -20 -26 10 -1 20 3 25 18 21 16 -5 17 -3 7
9 -14 17 -14 17 -33 -2z"/>
<path d="M5515 1145 c-4 -36 -5 -68 -3 -71 3 -2 8 25 12 62 4 37 5 69 2 71 -2
3 -7 -25 -11 -62z"/>
<path d="M5130 1177 c0 -9 4 -18 9 -21 5 -4 8 1 7 9 -3 21 -16 31 -16 12z"/>
<path d="M5156 1104 c-8 -22 -8 -26 4 -19 7 4 7 -2 0 -19 -10 -26 -4 -56 10
-56 22 0 26 66 6 93 -12 16 -14 16 -20 1z"/>
<path d="M5615 1108 c-42 -118 -71 -208 -66 -208 6 0 59 136 66 168 2 9 6 25
10 35 4 9 4 17 1 17 -4 0 -9 -6 -11 -12z"/>
<path d="M5259 1077 c-16 -34 4 -77 32 -72 29 6 38 22 32 54 -8 44 -47 56 -64
18z m54 -27 c3 -11 -1 -21 -10 -24 -24 -10 -28 -7 -29 19 -1 14 2 25 8 25 5 0
6 6 2 13 -6 9 -4 9 8 -1 9 -7 18 -21 21 -32z"/>
<path d="M5506 1039 c-6 -28 -17 -126 -21 -187 -3 -43 7 -51 11 -9 1 12 7 65
12 117 10 91 8 129 -2 79z"/>
<path d="M5150 948 c0 -26 4 -38 8 -30 8 12 4 72 -4 72 -2 0 -4 -19 -4 -42z"/>
<path d="M5154 883 c-13 -14 -21 -29 -19 -33 3 -5 -7 -22 -22 -39 -26 -29 -32
-31 -103 -32 -74 -1 -74 -1 -26 -10 28 -4 53 -6 57 -3 4 2 10 0 14 -6 4 -6 14
-4 29 5 12 8 25 13 28 9 3 -3 20 20 38 50 28 51 40 61 63 57 17 -3 5 17 -14
22 -15 4 -29 -2 -45 -20z"/>
<path d="M5247 870 c10 -11 21 -20 26 -20 4 0 3 9 -3 20 -6 11 -17 20 -25 20
-12 0 -12 -4 2 -20z"/>
<path d="M5526 838 c-8 -29 -17 -79 -21 -110 -4 -32 -11 -58 -16 -58 -6 0 -7
10 -4 23 6 18 5 20 -6 10 -10 -10 -10 -18 0 -39 9 -20 9 -30 0 -40 -7 -8 -7
-14 -2 -14 7 0 6 -14 0 -40 -8 -28 -8 -43 -1 -50 7 -7 11 -7 12 2 9 93 39 269
57 341 4 15 5 27 1 27 -3 0 -12 -24 -20 -52z"/>
<path d="M5270 823 c0 -11 4 -33 9 -49 6 -16 12 -49 15 -73 3 -24 9 -47 12
-50 7 -7 -3 88 -15 142 -11 44 -21 60 -21 30z"/>
<path d="M4817 749 c-20 -12 -49 -64 -40 -73 4 -3 2 -6 -4 -6 -13 0 -24 -24
-29 -62 -3 -23 3 -31 41 -54 25 -14 50 -24 57 -21 7 2 -4 10 -25 17 -20 8 -36
19 -34 24 2 6 -5 17 -15 26 -13 10 -17 21 -12 33 5 15 15 18 45 14 21 -2 36 0
33 4 -3 5 -14 9 -25 9 -29 0 -24 44 8 75 29 26 29 31 0 14z"/>
<path d="M5080 750 c0 -4 11 -11 24 -14 13 -3 26 -16 29 -28 4 -12 9 -19 13
-16 3 4 0 20 -7 36 -9 20 -20 30 -36 30 -13 0 -23 -4 -23 -8z"/>
<path d="M5151 616 c1 -31 5 -58 9 -61 8 -5 5 103 -4 112 -3 4 -5 -19 -5 -51z"/>
<path d="M5344 635 c-3 -8 -13 -15 -21 -15 -8 0 -11 5 -8 10 3 6 1 10 -5 10
-7 0 -9 -8 -5 -19 3 -11 1 -22 -5 -26 -5 -3 -10 -11 -10 -17 0 -6 6 -6 15 2
14 11 14 10 6 -12 -7 -19 -6 -31 5 -47 15 -20 41 -20 28 0 -3 5 -8 7 -12 5 -4
-2 -7 6 -7 19 0 13 8 29 19 35 10 6 15 7 12 2 -3 -6 -1 -23 5 -38 8 -23 12
-25 19 -14 15 23 12 6 -4 -24 -7 -15 -16 -27 -20 -27 -18 2 -19 -1 -1 -8 32
-13 51 -3 49 27 -1 15 5 35 13 44 8 9 13 20 10 25 -6 10 7 46 14 41 8 -4 39
22 39 33 0 4 -14 3 -30 -3 -33 -11 -55 -41 -46 -64 3 -8 2 -13 -3 -9 -5 3 -12
-1 -15 -7 -3 -7 -4 -1 -1 15 4 17 1 26 -6 25 -6 -2 -14 3 -16 10 -4 11 -1 12
16 3 30 -16 26 3 -4 23 -23 15 -26 15 -31 1z"/>
<path d="M4800 586 c0 -3 9 -10 20 -16 11 -6 20 -8 20 -6 0 3 -9 10 -20 16
-11 6 -20 8 -20 6z"/>
<path d="M5006 576 c5 -14 27 -22 37 -13 2 1 16 -6 32 -17 31 -20 82 -29 91
-15 5 9 -8 13 -38 10 -9 -1 -31 5 -47 14 -17 8 -31 13 -31 10 0 -3 -11 2 -25
11 -23 15 -25 15 -19 0z"/>
<path d="M4883 546 c1 -6 -4 -10 -11 -8 -8 1 -11 -2 -7 -8 3 -6 10 -8 15 -5 5
3 11 1 15 -5 3 -5 13 -10 22 -10 16 0 9 14 -8 16 -20 3 -21 5 -10 17 8 10 7
14 -4 14 -7 0 -13 -5 -12 -11z"/>
<path d="M5267 553 c-4 -3 -7 -15 -7 -25 0 -10 -5 -18 -11 -18 -5 0 -8 -4 -5
-9 8 -12 56 -20 56 -10 0 5 -7 9 -16 9 -10 0 -14 5 -10 15 3 8 9 22 12 30 6
15 -7 21 -19 8z"/>
<path d="M4957 534 c-11 -11 13 -44 31 -44 13 0 12 3 -6 16 -12 8 -20 20 -17
25 7 10 2 12 -8 3z"/>
<path d="M5180 516 c0 -7 40 -14 44 -7 3 4 -6 8 -20 9 -13 1 -24 0 -24 -2z"/>
<path d="M5010 490 c0 -5 7 -11 15 -11 18 -2 23 -3 50 -13 40 -15 51 -18 90
-22 22 -2 56 -11 76 -18 25 -10 40 -11 50 -4 11 8 11 9 -3 4 -10 -3 -18 -1
-18 4 0 6 -3 9 -7 9 -5 -1 -10 0 -13 1 -6 2 -26 6 -62 13 -14 3 -35 10 -47 16
-11 6 -38 12 -61 14 -22 1 -40 5 -40 10 0 4 -7 7 -15 7 -8 0 -15 -4 -15 -10z"/>
<path d="M5449 478 c-6 -11 -5 -46 1 -43 12 7 19 45 9 45 -5 0 -10 -1 -10 -2z"/>
</g>
</svg>
